<svg xmlns="http://www.w3.org/2000/svg" xmlns:xlink="http://www.w3.org/1999/xlink" xmlns:lucid="lucid" width="1152" height="1061"><g transform="translate(-389 -20)" lucid:page-tab-id="0_0"><path d="M760 40h160v60H760z" stroke="#000" stroke-width="2" fill="#fff"/><use xlink:href="#a" transform="matrix(1,0,0,1,765,45) translate(37.05 28.6)"/><use xlink:href="#b" transform="matrix(1,0,0,1,765,45) translate(92.95 28.6)"/><path d="M840 101v39.76" stroke="#000" stroke-width="2" fill="none"/><path d="M841 101h-2v-1h2zM840 155.76l-4.64-14.26h9.28z"/><path d="M840 159l-6-18.5h12zm-3.26-16.5l3.26 10.03 3.26-10.03z"/><path d="M760 160h160v60H760z" stroke="#000" stroke-width="2" fill="#fff"/><use xlink:href="#c" transform="matrix(1,0,0,1,765,165) translate(42.599999999999994 28.6)"/><path d="M840 221v39.76" stroke="#000" stroke-width="2" fill="none"/><path d="M841 221h-2v-1h2zM840 275.76l-4.64-14.26h9.28z"/><path d="M840 279l-6-18.5h12zm-3.26-16.5l3.26 10.03 3.26-10.03z"/><path d="M760 280h160v80H760z" stroke="#000" stroke-width="2" fill="#fff"/><use xlink:href="#d" transform="matrix(1,0,0,1,765,285) translate(13.949999999999996 17)"/><use xlink:href="#e" transform="matrix(1,0,0,1,765,285) translate(55.199999999999996 17)"/><use xlink:href="#f" transform="matrix(1,0,0,1,765,285) translate(80.19999999999999 17)"/><use xlink:href="#g" transform="matrix(1,0,0,1,765,285) translate(29.549999999999997 38.6)"/><use xlink:href="#h" transform="matrix(1,0,0,1,765,285) translate(64.55 38.6)"/><use xlink:href="#i" transform="matrix(1,0,0,1,765,285) translate(20.099999999999994 60.2)"/><use xlink:href="#j" transform="matrix(1,0,0,1,765,285) translate(95.95 60.2)"/><path d="M792 480h128l-32 120H760z" stroke="#000" stroke-width="2" fill="#fff"/><use xlink:href="#k" transform="matrix(1,0,0,1,765,485) translate(32.5 58.6)"/><use xlink:href="#l" transform="matrix(1,0,0,1,765,485) translate(81.5 58.6)"/><use xlink:href="#m" transform="matrix(1,0,0,1,765,485) translate(107.5 58.6)"/><path d="M660.48 541h-21.24v-2h21.24zm114.5 0h-39.5v-2h39.5z"/><path d="M775.73 541h-.76v-2h1.3zM638.5 544.64L624.24 540l14.26-4.64z"/><path d="M639.5 546l-18.5-6 18.5-6zm-12.03-6l10.03 3.26v-6.52z"/><use xlink:href="#n" transform="matrix(1,0,0,1,660.4825275000001,529.2) translate(0 14.4)"/><path d="M561 620l80 50-80 50-80-50z" stroke="#000" stroke-width="2" fill="#fff"/><use xlink:href="#o" transform="matrix(1,0,0,1,486,625) translate(30.025 37.8)"/><use xlink:href="#p" transform="matrix(1,0,0,1,486,625) translate(69.975 37.8)"/><use xlink:href="#q" transform="matrix(1,0,0,1,486,625) translate(40.5 59.4)"/><path d="M562 780.76h-2v-9.87h2zm0-31.47h-2v-28.12h2z"/><path d="M562 721.18h-2v-1.8l1 .62 1-.63zM561 795.76l-4.64-14.26h9.28z"/><path d="M561 799l-6-18.5h12zm-3.26-16.5l3.26 10.03 3.26-10.03z"/><use xlink:href="#r" transform="matrix(1,0,0,1,546.325,749.289624) translate(0 14.4)"/><path d="M481 960h160v60H481z" stroke="#000" stroke-width="2" fill="#fff"/><use xlink:href="#s" transform="matrix(1,0,0,1,486,965) translate(42.5 28.6)"/><path d="M821.76 446.4H421V989h59v2h-61V444.4h402.76z"/><path d="M481 991h-1v-2h1zM836.76 445.4l-14.26 4.63v-9.27z"/><path d="M840 445.4l-18.5 6v-12.02zm-16.5 3.25l10.03-3.26-10.03-3.27zM841 650.5h-2v-12.13h2zm0-33.73h-2V601h2zM841 601h-2v-1h2zM840 665.5l-4.64-14.25h9.28z"/><path d="M840 668.75l-6-18.5h12zm-3.26-16.5l3.26 10.03 3.26-10.03z"/><use xlink:href="#t" transform="matrix(1,0,0,1,802.5,616.7686274509805) translate(0 14.4)"/><path d="M840 670l80 60-80 60-80-60z" stroke="#000" stroke-width="2" fill="#fff"/><use xlink:href="#u" transform="matrix(1,0,0,1,765,675) translate(19.099999999999994 58.6)"/><use xlink:href="#v" transform="matrix(1,0,0,1,765,675) translate(70.05 58.6)"/><path d="M841 860.76h-2v-14.84h2zm0-36.43h-2v-33.08h2zM841 791.25h-2v-2l1 .75 1-.75zM840 875.76l-4.64-14.26h9.28z"/><path d="M840 879l-6-18.5h12zm-3.26-16.5l3.26 10.03 3.26-10.03z"/><use xlink:href="#r" transform="matrix(1,0,0,1,825.325,824.325) translate(0 14.4)"/><path d="M760 960h160v60H760z" stroke="#000" stroke-width="2" fill="#fff"/><use xlink:href="#s" transform="matrix(1,0,0,1,765,965) translate(42.5 28.6)"/><path d="M1061 620.76h-2v-22h-26.07v-2H1061zm-171.37-22v-2h68.3v2zM889.63 598.77h-1.3l.53-2h.77zM1060 635.76l-4.64-14.26h9.28z"/><path d="M1060 639l-6-18.5h12zm-3.26-16.5l3.26 10.03 3.26-10.03z"/><use xlink:href="#w" transform="matrix(1,0,0,1,957.9269059093981,586.974578578023) translate(0 14.4)"/><path d="M1000 640h120v80h-120z" stroke="#000" stroke-width="2" fill="#fff"/><use xlink:href="#x" transform="matrix(1,0,0,1,1005,645) translate(35.525 38.6)"/><path d="M1060 721v29.5" stroke="#000" stroke-width="2" fill="none"/><path d="M1061 721h-2v-1h2zM1060 765.5l-4.64-14.25h9.28z"/><path d="M1060 768.75l-6-18.5h12zm-3.26-16.5l3.26 10.03 3.26-10.03z"/><path d="M1060 770l80 60-80 60-80-60z" stroke="#000" stroke-width="2" fill="#fff"/><use xlink:href="#y" transform="matrix(1,0,0,1,985,775) translate(11.574999999999996 58.6)"/><use xlink:href="#z" transform="matrix(1,0,0,1,985,775) translate(55.525 58.6)"/><path d="M1061 940.76h-2v-4.84h2zm0-26.43h-2v-23.08h2zM1061 891.25h-2v-2l1 .75 1-.75zM1060 955.76l-4.64-14.26h9.28z"/><path d="M1060 959l-6-18.5h12zm-3.26-16.5l3.26 10.03 3.26-10.03z"/><use xlink:href="#r" transform="matrix(1,0,0,1,1045.325,914.325) translate(0 14.4)"/><path d="M980 960h160v60H980z" stroke="#000" stroke-width="2" fill="#fff"/><use xlink:href="#s" transform="matrix(1,0,0,1,985,965) translate(42.5 28.6)"/><path d="M821.76 425.67H401V1049h438v-28h2v30H399V423.67h422.76z"/><path d="M841 1021h-2v-1h2zM836.76 424.67l-14.26 4.63v-9.27z"/><path d="M840 424.67l-18.5 6v-12.02zm-16.5 3.26l10.03-3.26-10.03-3.26z"/><path d="M460 500h160v80H460z" stroke="#000" stroke-width="2" fill="#fff"/><use xlink:href="#A" transform="matrix(1,0,0,1,465,505) translate(-0.9499999999999886 38.6)"/><path d="M561 581v19.58" stroke="#000" stroke-width="2" fill="none"/><path d="M562 581h-2v-1h2zM561 615.58l-4.64-14.26h9.28z"/><path d="M561 618.82l-6-18.5h12zm-3.26-16.5l3.26 10.03 3.26-10.03z"/><path d="M479.1 670h-41.53" stroke="#000" stroke-width="2" fill="none"/><path d="M482.1 669.3l-1.1.7 1.1.7v.3h-3v-2h3z"/><path d="M423.23 669.46l14.44-4.1-.36 9.27z" stroke="#000" stroke-width="2"/><use xlink:href="#B" transform="matrix(1,0,0,1,462.3346268577644,644.4) translate(0 14.4)"/><path d="M758.33 730H690v301.76" stroke="#000" stroke-width="2" fill="none"/><path d="M760 730l1.33 1h-3v-2h3z"/><path d="M690 1046.76l-4.63-14.26h9.27z" stroke="#000" stroke-width="2"/><use xlink:href="#B" transform="matrix(1,0,0,1,722.6066281286044,704.4000000000001) translate(0 14.4)"/><path d="M1511 1051h-452v-30h2v28h448V423.67H858.24v-2H1511z"/><path d="M1061 1021h-2v-1h2zM857.5 427.3l-14.26-4.63 14.26-4.64z"/><path d="M858.5 428.68l-18.5-6 18.5-6.03zm-12.03-6l10.03 3.25v-6.52z"/><path d="M1141.67 830H1488v-.67h3.76" stroke="#000" stroke-width="2" fill="none"/><path d="M1141.67 831h-3l1.33-1-1.33-1h3z"/><path d="M1506.76 829.33l-14.26 4.64v-9.27z" stroke="#000" stroke-width="2"/><use xlink:href="#B" transform="matrix(1,0,0,1,1267.5874077783108,804.4000000000001) translate(0 14.4)"/><path d="M760 880h160v44.33H760z" stroke="#000" stroke-width="2" fill="#fff"/><use xlink:href="#C" transform="matrix(1,0,0,1,765,885) translate(27.099999999999994 21.1)"/><path d="M840 925.33v15.43" stroke="#000" stroke-width="2" fill="none"/><path d="M841 925.33h-2v-1h2zM840 955.76l-4.64-14.26h9.28z"/><path d="M840 959l-6-18.5h12zm-3.26-16.5l3.26 10.03 3.26-10.03z"/><path d="M840 361v99.76" stroke="#000" stroke-width="2" fill="none"/><path d="M841 361h-2v-1h2zM840 475.76l-4.64-14.26h9.28z"/><path d="M840 479l-6-18.5h12zm-3.26-16.5l3.26 10.03 3.26-10.03zM863 449h579v92h-41v-2h39v-88H861v-.67h-2.76v-2H863z"/><path d="M1401 541h-1v-2h1zM857.5 453.97l-14.26-4.64 14.26-4.63z"/><path d="M858.5 455.35l-18.5-6.02 18.5-6zm-12.03-6.02l10.03 3.26v-6.53zM954.52 541h-49.5v-2h49.5zm106.24 0h-31.24v-2h31.24z"/><path d="M905.03 541h-1.3l.54-2h.76zM1075.76 540l-14.26 4.64v-9.28z"/><path d="M1079 540l-18.5 6v-12zm-16.5 3.26l10.03-3.26-10.03-3.26z"/><use xlink:href="#D" transform="matrix(1,0,0,1,954.5174724999999,529.2) translate(0 14.4)"/><path d="M1080 500h160v80h-160z" stroke="#000" stroke-width="2" fill="#fff"/><use xlink:href="#E" transform="matrix(1,0,0,1,1085,505) translate(16.624999999999993 38.6)"/><use xlink:href="#F" transform="matrix(1,0,0,1,1085,505) translate(80.475 38.6)"/><path d="M1241 540h19.76" stroke="#000" stroke-width="2" fill="none"/><path d="M1241 541h-1v-2h1zM1275.76 540l-14.26 4.64v-9.28z"/><path d="M1279 540l-18.5 6v-12zm-16.5 3.26l10.03-3.26-10.03-3.26z"/><path d="M1280 513h120v54h-120z" stroke="#000" stroke-width="2" fill="#fff"/><g><use xlink:href="#G" transform="matrix(1,0,0,1,1285,518) translate(22.75 25.6)"/></g><path d="M481 800h160v60H481z" stroke="#000" stroke-width="2" fill="#fff"/><g><use xlink:href="#H" transform="matrix(1,0,0,1,486,805) translate(19.124999999999993 17.799999999999997)"/><use xlink:href="#I" transform="matrix(1,0,0,1,486,805) translate(95.92500000000001 17.799999999999997)"/><use xlink:href="#J" transform="matrix(1,0,0,1,486,805) translate(48.675 39.4)"/></g><path d="M561 861v79.76" stroke="#000" stroke-width="2" fill="none"/><path d="M562 861h-2v-1h2zM561 955.76l-4.64-14.26h9.28z"/><path d="M561 959l-6-18.5h12zm-3.26-16.5l3.26 10.03 3.26-10.03z"/><defs><path d="M30-248c87 1 191-15 191 75 0 78-77 80-158 76V0H30v-248zm33 125c57 0 124 11 124-50 0-59-68-47-124-48v98" id="K"/><path d="M100-194c62-1 85 37 85 99 1 63-27 99-86 99S16-35 15-95c0-66 28-99 85-99zM99-20c44 1 53-31 53-75 0-43-8-75-51-75s-53 32-53 75 10 74 51 75" id="L"/><path d="M206 0h-36l-40-164L89 0H53L-1-190h32L70-26l43-164h34l41 164 42-164h31" id="M"/><path d="M100-194c63 0 86 42 84 106H49c0 40 14 67 53 68 26 1 43-12 49-29l28 8c-11 28-37 45-77 45C44 4 14-33 15-96c1-61 26-98 85-98zm52 81c6-60-76-77-97-28-3 7-6 17-6 28h103" id="N"/><path d="M114-163C36-179 61-72 57 0H25l-1-190h30c1 12-1 29 2 39 6-27 23-49 58-41v29" id="O"/><g id="a"><use transform="matrix(0.05,0,0,0.05,0,0)" xlink:href="#K"/><use transform="matrix(0.05,0,0,0.05,12,0)" xlink:href="#L"/><use transform="matrix(0.05,0,0,0.05,22,0)" xlink:href="#M"/><use transform="matrix(0.05,0,0,0.05,34.95,0)" xlink:href="#N"/><use transform="matrix(0.05,0,0,0.05,44.95,0)" xlink:href="#O"/></g><path d="M117-194c89-4 53 116 60 194h-32v-121c0-31-8-49-39-48C34-167 62-67 57 0H25l-1-190h30c1 10-1 24 2 32 11-22 29-35 61-36" id="P"/><g id="b"><use transform="matrix(0.05,0,0,0.05,0,0)" xlink:href="#L"/><use transform="matrix(0.05,0,0,0.05,10,0)" xlink:href="#P"/></g><path d="M33 0v-248h34V0H33" id="Q"/><path d="M24-231v-30h32v30H24zM24 0v-190h32V0H24" id="R"/><path d="M59-47c-2 24 18 29 38 22v24C64 9 27 4 27-40v-127H5v-23h24l9-43h21v43h35v23H59v120" id="S"/><path d="M141-36C126-15 110 5 73 4 37 3 15-17 15-53c-1-64 63-63 125-63 3-35-9-54-41-54-24 1-41 7-42 31l-33-3c5-37 33-52 76-52 45 0 72 20 72 64v82c-1 20 7 32 28 27v20c-31 9-61-2-59-35zM48-53c0 20 12 33 32 33 41-3 63-29 60-74-43 2-92-5-92 41" id="T"/><path d="M24 0v-261h32V0H24" id="U"/><path d="M9 0v-24l116-142H16v-24h144v24L44-24h123V0H9" id="V"/><g id="c"><use transform="matrix(0.05,0,0,0.05,0,0)" xlink:href="#Q"/><use transform="matrix(0.05,0,0,0.05,5,0)" xlink:href="#P"/><use transform="matrix(0.05,0,0,0.05,15,0)" xlink:href="#R"/><use transform="matrix(0.05,0,0,0.05,18.95,0)" xlink:href="#S"/><use transform="matrix(0.05,0,0,0.05,23.95,0)" xlink:href="#R"/><use transform="matrix(0.05,0,0,0.05,27.899999999999995,0)" xlink:href="#T"/><use transform="matrix(0.05,0,0,0.05,37.9,0)" xlink:href="#U"/><use transform="matrix(0.05,0,0,0.05,41.85,0)" xlink:href="#R"/><use transform="matrix(0.05,0,0,0.05,45.800000000000004,0)" xlink:href="#V"/><use transform="matrix(0.05,0,0,0.05,54.800000000000004,0)" xlink:href="#N"/></g><path d="M127-220V0H93v-220H8v-28h204v28h-85" id="W"/><path d="M84 4C-5 8 30-112 23-190h32v120c0 31 7 50 39 49 72-2 45-101 50-169h31l1 190h-30c-1-10 1-25-2-33-11 22-28 36-60 37" id="X"/><g id="d"><use transform="matrix(0.05,0,0,0.05,0,0)" xlink:href="#W"/><use transform="matrix(0.05,0,0,0.05,10.3,0)" xlink:href="#X"/><use transform="matrix(0.05,0,0,0.05,20.3,0)" xlink:href="#O"/><use transform="matrix(0.05,0,0,0.05,26.25,0)" xlink:href="#P"/></g><g id="e"><use transform="matrix(0.05,0,0,0.05,0,0)" xlink:href="#L"/><use transform="matrix(0.05,0,0,0.05,10,0)" xlink:href="#P"/></g><path d="M30 0v-248h33v221h125V0H30" id="Y"/><path d="M30 0v-248h187v28H63v79h144v27H63v87h162V0H30" id="Z"/><path d="M30-248c118-7 216 8 213 122C240-48 200 0 122 0H30v-248zM63-27c89 8 146-16 146-99s-60-101-146-95v194" id="aa"/><path d="M87 75C49 33 22-17 22-94c0-76 28-126 65-167h31c-38 41-64 92-64 168S80 34 118 75H87" id="ab"/><path d="M135-143c-3-34-86-38-87 0 15 53 115 12 119 90S17 21 10-45l28-5c4 36 97 45 98 0-10-56-113-15-118-90-4-57 82-63 122-42 12 7 21 19 24 35" id="ac"/><path d="M33-261c38 41 65 92 65 168S71 34 33 75H2C39 34 66-17 66-93S39-220 2-261h31" id="ad"/><g id="f"><use transform="matrix(0.05,0,0,0.05,0,0)" xlink:href="#Y"/><use transform="matrix(0.05,0,0,0.05,10,0)" xlink:href="#Z"/><use transform="matrix(0.05,0,0,0.05,22,0)" xlink:href="#aa"/><use transform="matrix(0.05,0,0,0.05,34.95,0)" xlink:href="#ab"/><use transform="matrix(0.05,0,0,0.05,40.900000000000006,0)" xlink:href="#ac"/><use transform="matrix(0.05,0,0,0.05,49.900000000000006,0)" xlink:href="#ad"/></g><path d="M85-194c31 0 48 13 60 33l-1-100h32l1 261h-30c-2-10 0-23-3-31C134-8 116 4 85 4 32 4 16-35 15-94c0-66 23-100 70-100zm9 24c-40 0-46 34-46 75 0 40 6 74 45 74 42 0 51-32 51-76 0-42-9-74-50-73" id="ae"/><g id="g"><use transform="matrix(0.05,0,0,0.05,0,0)" xlink:href="#T"/><use transform="matrix(0.05,0,0,0.05,10,0)" xlink:href="#P"/><use transform="matrix(0.05,0,0,0.05,20,0)" xlink:href="#ae"/></g><path d="M115-194c55 1 70 41 70 98S169 2 115 4C84 4 66-9 55-30l1 105H24l-1-265h31l2 30c10-21 28-34 59-34zm-8 174c40 0 45-34 45-75s-6-73-45-74c-42 0-51 32-51 76 0 43 10 73 51 73" id="af"/><path d="M179-190L93 31C79 59 56 82 12 73V49c39 6 53-20 64-50L1-190h34L92-34l54-156h33" id="ag"/><g id="h"><use transform="matrix(0.05,0,0,0.05,0,0)" xlink:href="#ae"/><use transform="matrix(0.05,0,0,0.05,10,0)" xlink:href="#R"/><use transform="matrix(0.05,0,0,0.05,13.949999999999998,0)" xlink:href="#ac"/><use transform="matrix(0.05,0,0,0.05,22.95,0)" xlink:href="#af"/><use transform="matrix(0.05,0,0,0.05,32.95,0)" xlink:href="#U"/><use transform="matrix(0.05,0,0,0.05,36.900000000000006,0)" xlink:href="#T"/><use transform="matrix(0.05,0,0,0.05,46.900000000000006,0)" xlink:href="#ag"/></g><path d="M96-169c-40 0-48 33-48 73s9 75 48 75c24 0 41-14 43-38l32 2c-6 37-31 61-74 61-59 0-76-41-82-99-10-93 101-131 147-64 4 7 5 14 7 22l-32 3c-4-21-16-35-41-35" id="ah"/><path d="M210-169c-67 3-38 105-44 169h-31v-121c0-29-5-50-35-48C34-165 62-65 56 0H25l-1-190h30c1 10-1 24 2 32 10-44 99-50 107 0 11-21 27-35 58-36 85-2 47 119 55 194h-31v-121c0-29-5-49-35-48" id="ai"/><g id="i"><use transform="matrix(0.05,0,0,0.05,0,0)" xlink:href="#M"/><use transform="matrix(0.05,0,0,0.05,12.950000000000001,0)" xlink:href="#N"/><use transform="matrix(0.05,0,0,0.05,22.950000000000003,0)" xlink:href="#U"/><use transform="matrix(0.05,0,0,0.05,26.900000000000002,0)" xlink:href="#ah"/><use transform="matrix(0.05,0,0,0.05,35.900000000000006,0)" xlink:href="#L"/><use transform="matrix(0.05,0,0,0.05,45.900000000000006,0)" xlink:href="#ai"/><use transform="matrix(0.05,0,0,0.05,60.85,0)" xlink:href="#N"/></g><path d="M177-190C167-65 218 103 67 71c-23-6-38-20-44-43l32-5c15 47 100 32 89-28v-30C133-14 115 1 83 1 29 1 15-40 15-95c0-56 16-97 71-98 29-1 48 16 59 35 1-10 0-23 2-32h30zM94-22c36 0 50-32 50-73 0-42-14-75-50-75-39 0-46 34-46 75s6 73 46 73" id="aj"/><g id="j"><use transform="matrix(0.05,0,0,0.05,0,0)" xlink:href="#ai"/><use transform="matrix(0.05,0,0,0.05,14.950000000000001,0)" xlink:href="#ac"/><use transform="matrix(0.05,0,0,0.05,23.950000000000003,0)" xlink:href="#aj"/></g><g id="k"><use transform="matrix(0.05,0,0,0.05,0,0)" xlink:href="#ac"/><use transform="matrix(0.05,0,0,0.05,9,0)" xlink:href="#S"/><use transform="matrix(0.05,0,0,0.05,14,0)" xlink:href="#T"/><use transform="matrix(0.05,0,0,0.05,24,0)" xlink:href="#aj"/><use transform="matrix(0.05,0,0,0.05,34,0)" xlink:href="#N"/></g><path d="M18-150v-26h174v26H18zm0 90v-26h174v26H18" id="ak"/><g id="l"><use transform="matrix(0.05,0,0,0.05,0,0)" xlink:href="#ak"/><use transform="matrix(0.05,0,0,0.05,10.5,0)" xlink:href="#ak"/></g><path d="M103-251c84 0 111 97 45 133-19 10-37 24-39 52H78c0-63 77-55 77-114 0-30-21-42-52-43-32 0-53 17-56 46l-32-2c7-45 34-72 88-72zM77 0v-35h34V0H77" id="al"/><use transform="matrix(0.05,0,0,0.05,0,0)" xlink:href="#al" id="m"/><path d="M101-251c68 0 85 55 85 127S166 4 100 4C33 4 14-52 14-124c0-73 17-127 87-127zm-1 229c47 0 54-49 54-102s-4-102-53-102c-51 0-55 48-55 102 0 53 5 102 54 102" id="am"/><g id="n"><use transform="matrix(0.05,0,0,0.05,0,0)" xlink:href="#ac"/><use transform="matrix(0.05,0,0,0.05,9,0)" xlink:href="#S"/><use transform="matrix(0.05,0,0,0.05,14,0)" xlink:href="#T"/><use transform="matrix(0.05,0,0,0.05,24,0)" xlink:href="#aj"/><use transform="matrix(0.05,0,0,0.05,34,0)" xlink:href="#N"/><use transform="matrix(0.05,0,0,0.05,44,0)" xlink:href="#ak"/><use transform="matrix(0.05,0,0,0.05,54.5,0)" xlink:href="#ak"/><use transform="matrix(0.05,0,0,0.05,65,0)" xlink:href="#am"/></g><g id="o"><use transform="matrix(0.05,0,0,0.05,0,0)" xlink:href="#ac"/><use transform="matrix(0.05,0,0,0.05,9,0)" xlink:href="#S"/><use transform="matrix(0.05,0,0,0.05,14,0)" xlink:href="#T"/><use transform="matrix(0.05,0,0,0.05,24,0)" xlink:href="#O"/><use transform="matrix(0.05,0,0,0.05,29.950000000000003,0)" xlink:href="#S"/></g><path d="M115-194c53 0 69 39 70 98 0 66-23 100-70 100C84 3 66-7 56-30L54 0H23l1-261h32v101c10-23 28-34 59-34zm-8 174c40 0 45-34 45-75 0-40-5-75-45-74-42 0-51 32-51 76 0 43 10 73 51 73" id="an"/><g id="p"><use transform="matrix(0.05,0,0,0.05,0,0)" xlink:href="#an"/><use transform="matrix(0.05,0,0,0.05,10,0)" xlink:href="#X"/><use transform="matrix(0.05,0,0,0.05,20,0)" xlink:href="#S"/><use transform="matrix(0.05,0,0,0.05,25,0)" xlink:href="#S"/><use transform="matrix(0.05,0,0,0.05,30,0)" xlink:href="#L"/><use transform="matrix(0.05,0,0,0.05,40,0)" xlink:href="#P"/></g><path d="M106-169C34-169 62-67 57 0H25v-261h32l-1 103c12-21 28-36 61-36 89 0 53 116 60 194h-32v-121c2-32-8-49-39-48" id="ao"/><g id="q"><use transform="matrix(0.05,0,0,0.05,0,0)" xlink:href="#af"/><use transform="matrix(0.05,0,0,0.05,10,0)" xlink:href="#X"/><use transform="matrix(0.05,0,0,0.05,20,0)" xlink:href="#ac"/><use transform="matrix(0.05,0,0,0.05,29,0)" xlink:href="#ao"/><use transform="matrix(0.05,0,0,0.05,39,0)" xlink:href="#N"/><use transform="matrix(0.05,0,0,0.05,49,0)" xlink:href="#ae"/><use transform="matrix(0.05,0,0,0.05,59,0)" xlink:href="#al"/></g><path d="M137-103V0h-34v-103L8-248h37l75 118 75-118h37" id="ap"/><g id="r"><use transform="matrix(0.05,0,0,0.05,0,0)" xlink:href="#ap"/><use transform="matrix(0.05,0,0,0.05,10.35,0)" xlink:href="#N"/><use transform="matrix(0.05,0,0,0.05,20.35,0)" xlink:href="#ac"/></g><path d="M118-107v75H92v-75H18v-26h74v-75h26v75h74v26h-74" id="aq"/><g id="s"><use transform="matrix(0.05,0,0,0.05,0,0)" xlink:href="#ac"/><use transform="matrix(0.05,0,0,0.05,9,0)" xlink:href="#S"/><use transform="matrix(0.05,0,0,0.05,14,0)" xlink:href="#T"/><use transform="matrix(0.05,0,0,0.05,24,0)" xlink:href="#aj"/><use transform="matrix(0.05,0,0,0.05,34,0)" xlink:href="#N"/><use transform="matrix(0.05,0,0,0.05,44,0)" xlink:href="#aq"/><use transform="matrix(0.05,0,0,0.05,54.5,0)" xlink:href="#aq"/></g><path d="M27 0v-27h64v-190l-56 39v-29l58-41h29v221h61V0H27" id="ar"/><g id="t"><use transform="matrix(0.05,0,0,0.05,0,0)" xlink:href="#ac"/><use transform="matrix(0.05,0,0,0.05,9,0)" xlink:href="#S"/><use transform="matrix(0.05,0,0,0.05,14,0)" xlink:href="#T"/><use transform="matrix(0.05,0,0,0.05,24,0)" xlink:href="#aj"/><use transform="matrix(0.05,0,0,0.05,34,0)" xlink:href="#N"/><use transform="matrix(0.05,0,0,0.05,44,0)" xlink:href="#ak"/><use transform="matrix(0.05,0,0,0.05,54.5,0)" xlink:href="#ak"/><use transform="matrix(0.05,0,0,0.05,65,0)" xlink:href="#ar"/></g><g id="u"><use transform="matrix(0.05,0,0,0.05,0,0)" xlink:href="#an"/><use transform="matrix(0.05,0,0,0.05,10,0)" xlink:href="#L"/><use transform="matrix(0.05,0,0,0.05,20,0)" xlink:href="#T"/><use transform="matrix(0.05,0,0,0.05,30,0)" xlink:href="#O"/><use transform="matrix(0.05,0,0,0.05,35.95,0)" xlink:href="#ae"/></g><path d="M108 0H70L1-190h34L89-25l56-165h34" id="as"/><g id="v"><use transform="matrix(0.05,0,0,0.05,0,0)" xlink:href="#U"/><use transform="matrix(0.05,0,0,0.05,3.95,0)" xlink:href="#N"/><use transform="matrix(0.05,0,0,0.05,13.949999999999998,0)" xlink:href="#as"/><use transform="matrix(0.05,0,0,0.05,22.95,0)" xlink:href="#N"/><use transform="matrix(0.05,0,0,0.05,32.95,0)" xlink:href="#U"/><use transform="matrix(0.05,0,0,0.05,36.900000000000006,0)" xlink:href="#U"/><use transform="matrix(0.05,0,0,0.05,40.85000000000001,0)" xlink:href="#N"/><use transform="matrix(0.05,0,0,0.05,50.85000000000001,0)" xlink:href="#ae"/></g><path d="M101-251c82-7 93 87 43 132L82-64C71-53 59-42 53-27h129V0H18c2-99 128-94 128-182 0-28-16-43-45-43s-46 15-49 41l-32-3c6-41 34-60 81-64" id="at"/><g id="w"><use transform="matrix(0.05,0,0,0.05,0,0)" xlink:href="#ac"/><use transform="matrix(0.05,0,0,0.05,9,0)" xlink:href="#S"/><use transform="matrix(0.05,0,0,0.05,14,0)" xlink:href="#T"/><use transform="matrix(0.05,0,0,0.05,24,0)" xlink:href="#aj"/><use transform="matrix(0.05,0,0,0.05,34,0)" xlink:href="#N"/><use transform="matrix(0.05,0,0,0.05,44,0)" xlink:href="#ak"/><use transform="matrix(0.05,0,0,0.05,54.5,0)" xlink:href="#ak"/><use transform="matrix(0.05,0,0,0.05,65,0)" xlink:href="#at"/></g><path d="M205 0l-28-72H64L36 0H1l101-248h38L239 0h-34zm-38-99l-47-123c-12 45-31 82-46 123h93" id="au"/><path d="M140-251c81 0 123 46 123 126C263-53 228-8 163 1c7 30 30 48 69 40v23c-55 16-95-15-103-61C56-3 17-48 17-125c0-80 42-126 123-126zm0 227c63 0 89-41 89-101s-29-99-89-99c-61 0-89 39-89 99S79-25 140-24" id="av"/><g id="x"><use transform="matrix(0.05,0,0,0.05,0,0)" xlink:href="#aa"/><use transform="matrix(0.05,0,0,0.05,12.950000000000001,0)" xlink:href="#au"/><use transform="matrix(0.05,0,0,0.05,24.950000000000003,0)" xlink:href="#av"/></g><g id="y"><use transform="matrix(0.05,0,0,0.05,0,0)" xlink:href="#aa"/><use transform="matrix(0.05,0,0,0.05,12.950000000000001,0)" xlink:href="#au"/><use transform="matrix(0.05,0,0,0.05,24.950000000000003,0)" xlink:href="#av"/></g><g id="z"><use transform="matrix(0.05,0,0,0.05,0,0)" xlink:href="#ah"/><use transform="matrix(0.05,0,0,0.05,9,0)" xlink:href="#L"/><use transform="matrix(0.05,0,0,0.05,19,0)" xlink:href="#ai"/><use transform="matrix(0.05,0,0,0.05,33.95,0)" xlink:href="#af"/><use transform="matrix(0.05,0,0,0.05,43.95,0)" xlink:href="#U"/><use transform="matrix(0.05,0,0,0.05,47.900000000000006,0)" xlink:href="#N"/><use transform="matrix(0.05,0,0,0.05,57.900000000000006,0)" xlink:href="#S"/><use transform="matrix(0.05,0,0,0.05,62.900000000000006,0)" xlink:href="#N"/><use transform="matrix(0.05,0,0,0.05,72.9,0)" xlink:href="#al"/></g><path d="M143 0L79-87 56-68V0H24v-261h32v163l83-92h37l-77 82L181 0h-38" id="aw"/><path d="M160-131c35 5 61 23 61 61C221 17 115-2 30 0v-248c76 3 177-17 177 60 0 33-19 50-47 57zm-97-11c50-1 110 9 110-42 0-47-63-36-110-37v79zm0 115c55-2 124 14 124-45 0-56-70-42-124-44v89" id="ax"/><g id="A"><use transform="matrix(0.05,0,0,0.05,0,0)" xlink:href="#ah"/><use transform="matrix(0.05,0,0,0.05,9,0)" xlink:href="#ao"/><use transform="matrix(0.05,0,0,0.05,19,0)" xlink:href="#N"/><use transform="matrix(0.05,0,0,0.05,29,0)" xlink:href="#ah"/><use transform="matrix(0.05,0,0,0.05,38,0)" xlink:href="#aw"/><use transform="matrix(0.05,0,0,0.05,47,0)" xlink:href="#ax"/><use transform="matrix(0.05,0,0,0.05,59,0)" xlink:href="#X"/><use transform="matrix(0.05,0,0,0.05,69,0)" xlink:href="#S"/><use transform="matrix(0.05,0,0,0.05,74,0)" xlink:href="#S"/><use transform="matrix(0.05,0,0,0.05,79,0)" xlink:href="#L"/><use transform="matrix(0.05,0,0,0.05,89,0)" xlink:href="#P"/><use transform="matrix(0.05,0,0,0.05,99,0)" xlink:href="#K"/><use transform="matrix(0.05,0,0,0.05,111,0)" xlink:href="#X"/><use transform="matrix(0.05,0,0,0.05,121,0)" xlink:href="#ac"/><use transform="matrix(0.05,0,0,0.05,130,0)" xlink:href="#ao"/><use transform="matrix(0.05,0,0,0.05,140,0)" xlink:href="#ab"/><use transform="matrix(0.05,0,0,0.05,145.95,0)" xlink:href="#ad"/></g><path d="M190 0L58-211 59 0H30v-248h39L202-35l-2-213h31V0h-41" id="ay"/><g id="B"><use transform="matrix(0.05,0,0,0.05,0,0)" xlink:href="#ay"/><use transform="matrix(0.05,0,0,0.05,12.950000000000001,0)" xlink:href="#L"/></g><path d="M143 4C61 4 22-44 18-125c-5-107 100-154 193-111 17 8 29 25 37 43l-32 9c-13-25-37-40-76-40-61 0-88 39-88 99 0 61 29 100 91 101 35 0 62-11 79-27v-45h-74v-28h105v86C228-13 192 4 143 4" id="az"/><path d="M140-251c81 0 123 46 123 126C263-46 219 4 140 4 59 4 17-45 17-125s42-126 123-126zm0 227c63 0 89-41 89-101s-29-99-89-99c-61 0-89 39-89 99S79-25 140-24" id="aA"/><g id="C"><use transform="matrix(0.05,0,0,0.05,0,0)" xlink:href="#ae"/><use transform="matrix(0.05,0,0,0.05,10,0)" xlink:href="#R"/><use transform="matrix(0.05,0,0,0.05,13.949999999999998,0)" xlink:href="#ac"/><use transform="matrix(0.05,0,0,0.05,22.95,0)" xlink:href="#af"/><use transform="matrix(0.05,0,0,0.05,32.95,0)" xlink:href="#U"/><use transform="matrix(0.05,0,0,0.05,36.900000000000006,0)" xlink:href="#T"/><use transform="matrix(0.05,0,0,0.05,46.900000000000006,0)" xlink:href="#ag"/><use transform="matrix(0.05,0,0,0.05,55.900000000000006,0)" xlink:href="#az"/><use transform="matrix(0.05,0,0,0.05,69.9,0)" xlink:href="#aA"/><use transform="matrix(0.05,0,0,0.05,83.9,0)" xlink:href="#ab"/><use transform="matrix(0.05,0,0,0.05,89.85000000000001,0)" xlink:href="#ad"/></g><path d="M126-127c33 6 58 20 58 59 0 88-139 92-164 29-3-8-5-16-6-25l32-3c6 27 21 44 54 44 32 0 52-15 52-46 0-38-36-46-79-43v-28c39 1 72-4 72-42 0-27-17-43-46-43-28 0-47 15-49 41l-32-3c6-42 35-63 81-64 48-1 79 21 79 65 0 36-21 52-52 59" id="aB"/><g id="D"><use transform="matrix(0.05,0,0,0.05,0,0)" xlink:href="#ac"/><use transform="matrix(0.05,0,0,0.05,9,0)" xlink:href="#S"/><use transform="matrix(0.05,0,0,0.05,14,0)" xlink:href="#T"/><use transform="matrix(0.05,0,0,0.05,24,0)" xlink:href="#aj"/><use transform="matrix(0.05,0,0,0.05,34,0)" xlink:href="#N"/><use transform="matrix(0.05,0,0,0.05,44,0)" xlink:href="#ak"/><use transform="matrix(0.05,0,0,0.05,54.5,0)" xlink:href="#ak"/><use transform="matrix(0.05,0,0,0.05,65,0)" xlink:href="#aB"/></g><g id="E"><use transform="matrix(0.05,0,0,0.05,0,0)" xlink:href="#aa"/><use transform="matrix(0.05,0,0,0.05,12.950000000000001,0)" xlink:href="#R"/><use transform="matrix(0.05,0,0,0.05,16.900000000000002,0)" xlink:href="#ac"/><use transform="matrix(0.05,0,0,0.05,25.900000000000002,0)" xlink:href="#af"/><use transform="matrix(0.05,0,0,0.05,35.900000000000006,0)" xlink:href="#U"/><use transform="matrix(0.05,0,0,0.05,39.85000000000001,0)" xlink:href="#T"/><use transform="matrix(0.05,0,0,0.05,49.85000000000001,0)" xlink:href="#ag"/></g><g id="F"><use transform="matrix(0.05,0,0,0.05,0,0)" xlink:href="#O"/><use transform="matrix(0.05,0,0,0.05,5.95,0)" xlink:href="#N"/><use transform="matrix(0.05,0,0,0.05,15.949999999999998,0)" xlink:href="#ac"/><use transform="matrix(0.05,0,0,0.05,24.95,0)" xlink:href="#X"/><use transform="matrix(0.05,0,0,0.05,34.95,0)" xlink:href="#U"/><use transform="matrix(0.05,0,0,0.05,38.900000000000006,0)" xlink:href="#S"/><use transform="matrix(0.05,0,0,0.05,43.900000000000006,0)" xlink:href="#ac"/></g><g id="G"><use transform="matrix(0.05,0,0,0.05,0,0)" xlink:href="#ac"/><use transform="matrix(0.05,0,0,0.05,9,0)" xlink:href="#S"/><use transform="matrix(0.05,0,0,0.05,14,0)" xlink:href="#T"/><use transform="matrix(0.05,0,0,0.05,24,0)" xlink:href="#aj"/><use transform="matrix(0.05,0,0,0.05,34,0)" xlink:href="#N"/><use transform="matrix(0.05,0,0,0.05,44,0)" xlink:href="#ak"/><use transform="matrix(0.05,0,0,0.05,54.5,0)" xlink:href="#am"/></g><path d="M212-179c-10-28-35-45-73-45-59 0-87 40-87 99 0 60 29 101 89 101 43 0 62-24 78-52l27 14C228-24 195 4 139 4 59 4 22-46 18-125c-6-104 99-153 187-111 19 9 31 26 39 46" id="aC"/><g id="H"><use transform="matrix(0.05,0,0,0.05,0,0)" xlink:href="#aC"/><use transform="matrix(0.05,0,0,0.05,12.950000000000001,0)" xlink:href="#T"/><use transform="matrix(0.05,0,0,0.05,22.950000000000003,0)" xlink:href="#U"/><use transform="matrix(0.05,0,0,0.05,26.900000000000002,0)" xlink:href="#R"/><use transform="matrix(0.05,0,0,0.05,30.85,0)" xlink:href="#an"/><use transform="matrix(0.05,0,0,0.05,40.85,0)" xlink:href="#O"/><use transform="matrix(0.05,0,0,0.05,46.800000000000004,0)" xlink:href="#T"/><use transform="matrix(0.05,0,0,0.05,56.800000000000004,0)" xlink:href="#S"/><use transform="matrix(0.05,0,0,0.05,61.800000000000004,0)" xlink:href="#N"/></g><g id="I"><use transform="matrix(0.05,0,0,0.05,0,0)" xlink:href="#aj"/><use transform="matrix(0.05,0,0,0.05,10,0)" xlink:href="#ag"/><use transform="matrix(0.05,0,0,0.05,19,0)" xlink:href="#O"/><use transform="matrix(0.05,0,0,0.05,24.95,0)" xlink:href="#L"/></g><path d="M101-234c-31-9-42 10-38 44h38v23H63V0H32v-167H5v-23h27c-7-52 17-82 69-68v24" id="aD"/><g id="J"><use transform="matrix(0.05,0,0,0.05,0,0)" xlink:href="#L"/><use transform="matrix(0.05,0,0,0.05,10,0)" xlink:href="#aD"/><use transform="matrix(0.05,0,0,0.05,14.65,0)" xlink:href="#aD"/><use transform="matrix(0.05,0,0,0.05,19.65,0)" xlink:href="#ac"/><use transform="matrix(0.05,0,0,0.05,28.649999999999995,0)" xlink:href="#N"/><use transform="matrix(0.05,0,0,0.05,38.65,0)" xlink:href="#S"/><use transform="matrix(0.05,0,0,0.05,43.65,0)" xlink:href="#ac"/></g></defs></g></svg>